_________________________  Visit us at _________________________
  
http://p2pdl.com  ____________________________  http://p2pdl.com


A Clockwork Orange 1971 BRRip 720p x264 AAC - PRiSTiNE [P2PDL]

Genre: Crime | Drama | Sci-Fi
Plot: In future Britain, charismatic delinquent Alex DeLarge 
is jailed and volunteers for an experimental aversion therapy 
developed by the government in an effort to solve society's 
crime problem... but not all goes to plan.
Director: Stanley Kubrick
Stars: Malcolm McDowell, Patrick Magee, Michael Bates
Rated: Rated R for brutal bloody violence, some strong sexuality, nudity, and language

Info: 
http://www.imdb.com/title/tt0066921/

General
Complete name                  : A Clockwork Orange 1971 BRRip 720p x264 AAC - PRiSTiNE.mp4
Format                         : MPEG-4
File size                      : 764 MiB
Duration                       : 2h 16mn
Overall bit rate mode          : Variable
Overall bit rate               : 782 Kbps

Video
Format                         : AVC
Format/Info                    : Advanced Video Codec
Format profile                 : High 10@L4.1
Bit rate                       : 699 Kbps
Height                         : 720 pixels
Display aspect ratio           : 1.644
Frame rate mode                : Constant
Frame rate                     : 23.976 fps
Bit depth                      : 10 bits
Stream size                    : 683 MiB (89%)
Writing library                : x264 core 130 r2273 b3065e6

Audio
Format                         : AAC
Format/Info                    : Advanced Audio Codec
Bit rate mode                  : Variable
Bit rate                       : 80.0 Kbps
Channel(s)                     : 2 channels
Channel positions              : Front: L R
Sampling rate                  : 48.0 KHz / 24.0 KHz
Stream size                    : 78.1 MiB (10%)
Language                       : English

Subtitle                       : Yes (English)
Source                         : 720p.BluRay.DTS.x264-ThD (Thanks)

Screenshots:
 
http://www.ultraimg.com/images/wDncH.jpg 
http://www.ultraimg.com/images/adykK.jpg 
http://www.ultraimg.com/images/a9Apo.jpg 
http://www.ultraimg.com/images/KSCG.jpg 
http://www.ultraimg.com/images/7PYBd.jpg

----------------------------------------------------------------------------------------------------


Encoded using revolutionary 10bit encoding, which enables us to provide you more crispier 
and sharper images at small sizes, just make sure you follow our instructions without a fault.
Recommend to you to use latest version of VLC player. Install K-Lite Codec Pack or shark007 codecs
in case of any kind of problem in playback (For non-VLC Media Player users). Alternatively, install
Core AVC codecs, the fastest decoder that there is coupled with Community Center Codec Pack and play
on Windows Media Player Classic. Check sample to be sure.
Enjoy!

Encoder Notes:Looking For Early Access To Anything You Can Provide DVDScr, R5, DVDR, BluRay, Direct
Audio, Music Releases and Seedboxes. We require dedicated servers, so as to do more 
and fast releases of movies.
If You Got anything to offer please contact us at "prg@hush.com".

Face book Fan Page:   
http://www.fb.me/p2pdl